<?xml version="1.0" encoding="UTF-8" standalone="no"?><!DOCTYPE svg PUBLIC "-//W3C//DTD SVG 1.1//EN" "http://www.w3.org/Graphics/SVG/1.1/DTD/svg11.dtd"><svg width="100%" height="100%" viewBox="0 0 3334 3334" version="1.1" xmlns="http://www.w3.org/2000/svg" xmlns:xlink="http://www.w3.org/1999/xlink" xml:space="preserve" xmlns:serif="http://www.serif.com/" style="fill-rule:evenodd;clip-rule:evenodd;stroke-linejoin:round;stroke-miterlimit:2;"><g id="layer1"><path id="path453673" d="M833.333,2084.76c-57.144,0 -104.166,47.023 -104.166,104.167c-0,57.144 47.022,104.167 104.166,104.167l833.334,-0c57.144,-0 104.166,-47.023 104.166,-104.167c0,-57.144 -47.022,-104.167 -104.166,-104.167l-833.334,0Z" style="fill:#172554;"/><path id="path453657" d="M1041.67,1772.26c-57.144,0 -104.167,47.023 -104.167,104.167c0,57.144 47.023,104.167 104.167,104.167l625,-0c57.144,-0 104.166,-47.023 104.166,-104.167c0,-57.144 -47.022,-104.167 -104.166,-104.167l-625,0Z" style="fill:#172554;"/><path id="path453639" d="M1354.17,1459.76c-57.144,0 -104.167,47.023 -104.167,104.167c0,57.144 47.023,104.167 104.167,104.167l312.5,-0c57.144,-0 104.166,-47.023 104.166,-104.167c0,-57.144 -47.022,-104.167 -104.166,-104.167l-312.5,0Z" style="fill:#172554;"/><path id="path453633" d="M925.903,835.368c-23.472,2.643 -45.361,13.193 -62.052,29.907l-186.768,186.768l-82.601,-82.601c-40.405,-40.397 -106.892,-40.397 -147.298,-0c-40.396,40.405 -40.396,106.892 0,147.298l156.25,156.25c40.408,40.391 106.891,40.391 147.298,-0l260.417,-260.417c40.397,-40.405 40.397,-106.893 0,-147.298c-22.374,-22.398 -53.782,-33.417 -85.246,-29.907Z" style="fill:#172554;"/><path id="path453615" d="M729.167,418.091c-343.944,-0 -625,281.057 -625,625c-0,184.167 80.661,350.273 208.333,464.884l0,1201.78c0.006,57.142 47.025,104.161 104.167,104.167l226.44,-0c43.301,120.874 159.46,208.333 294.393,208.333c134.933,0 251.092,-87.459 294.393,-208.333l973.714,-0c43.301,120.874 159.46,208.333 294.393,208.333c134.933,0 251.092,-87.459 294.393,-208.333l330.607,-0c57.142,-0.006 104.161,-47.025 104.167,-104.167l-0,-729.166c0.017,-23.655 -8.022,-46.624 -22.787,-65.105l-416.666,-520.833c-19.771,-24.691 -49.749,-39.081 -81.381,-39.062l-625,-0l0,-208.334c-0.005,-57.142 -47.024,-104.161 -104.166,-104.166l-625,-0c-0,-343.943 -281.057,-625 -625,-625Zm-0,208.333c231.352,-0 416.666,185.315 416.666,416.667c0,231.352 -185.314,416.666 -416.666,416.666c-88.289,0 -169.881,-27.006 -237.02,-73.241c-8.048,-8.502 -17.471,-15.586 -27.873,-20.956c-92.863,-76.208 -151.774,-192.024 -151.774,-322.469c0,-231.352 185.315,-416.667 416.667,-416.667Zm588.989,625l556.844,-0l0,1354.17l-643.107,-0c-43.301,-120.874 -159.46,-208.334 -294.393,-208.334c-134.933,0 -251.092,87.46 -294.393,208.334l-122.274,-0l0,-973.511c65.237,23.226 135.349,36.011 208.334,36.011c270.959,-0 502.76,-174.473 588.989,-416.667Zm765.177,312.5l208.334,-0l-0,520.833c0.005,57.142 47.024,104.161 104.166,104.167l625,-0l0,416.667l-226.44,-0c-43.301,-120.874 -159.46,-208.334 -294.393,-208.334c-134.933,0 -251.092,87.46 -294.393,208.334l-122.274,-0l0,-1041.67Zm416.667,-0l158.284,-0l333.252,416.667l-491.536,-0l0,-416.667Zm-1562.5,1041.67c58.763,-0 104.167,45.403 104.167,104.166c-0,58.764 -45.404,104.167 -104.167,104.167c-58.763,-0 -104.167,-45.403 -104.167,-104.167c0,-58.763 45.404,-104.166 104.167,-104.166Zm1562.5,-0c58.763,-0 104.167,45.403 104.167,104.166c-0,58.764 -45.404,104.167 -104.167,104.167c-58.763,-0 -104.167,-45.403 -104.167,-104.167c0,-58.763 45.404,-104.166 104.167,-104.166Z" style="fill:#172554;"/></g></svg>